<svg class="svg-icons" viewBox="0 0 24 24">
<path fill="#ffffff" d="M10.795 16.967l-4.364-8.727c-0.37-0.74-1.582-0.74-1.952 0l-4.364 8.727c-0.269 0.539-0.051 1.195 0.488 1.464 0.54 0.271 1.195 0.050 1.464-0.488l0.789-1.58h5.197l0.79 1.579c0.191 0.383 0.576 0.603 0.976 0.603 0.164 0 0.331-0.037 0.487-0.115 0.539-0.271 0.758-0.925 0.489-1.464zM3.947 14.182l1.508-3.015 1.508 3.015h-3.015z"></path>
<path fill="#ffffff" d="M22.909 18.545h-6.545c-0.413 0-0.791-0.233-0.976-0.603s-0.144-0.812 0.104-1.142l5.236-6.982h-4.364c-0.602 0-1.091-0.489-1.091-1.091s0.489-1.091 1.091-1.091h6.545c0.413 0 0.791 0.233 0.976 0.603s0.144 0.812-0.104 1.142l-5.236 6.982h4.364c0.602 0 1.091 0.489 1.091 1.091s-0.489 1.091-1.091 1.091z"></path>
<path fill="#ffffff" d="M14.182 14.182h-2.182c-0.602 0-1.091-0.489-1.091-1.091s0.489-1.091 1.091-1.091h2.182c0.602 0 1.091 0.489 1.091 1.091s-0.489 1.091-1.091 1.091z"></path>
</svg>